<svg xmlns="http://www.w3.org/2000/svg" viewBox="0 0 969.87 668"><defs><style>.cls-1{fill:#3f35a8;}.cls-2{fill:#2d2b8e;}.cls-3{fill:#fc76b2;}.cls-4{fill:#e39ae8;}.cls-5{fill:#fff;}.cls-6{fill:#f9b640;}.cls-7{fill:#e03d51;}.cls-8{fill:#fff1d6;}.cls-9{fill:#252956;}.cls-10{fill:#a27cf5;}.cls-11{fill:#1b2044;}.cls-12{fill:#ee9d7f;}.cls-13{fill:#e67052;}.cls-14{fill:#f3b294;}.cls-15{fill:#963734;}.cls-16{fill:#aa3c3c;}.cls-17{fill:#f4a517;}.cls-18{fill:#8865e5;}.cls-19{fill:#f5f9fc;}.cls-20{fill:#414682;}.cls-21{fill:#c92f3b;}.cls-22{fill:#e59429;}.cls-23{fill:#fce2c0;}.cls-24{fill:#d8dfe9;}.cls-25{fill:#c86cdb;}.cls-26{fill:#2e87cd;}.cls-27{fill:#e28c71;}.cls-28{fill:#fcdcda;}.cls-29{fill:#efbebd;}.cls-30{fill:#f9b5a0;}.cls-31{fill:#f28f19;}.cls-32{fill:#b159c6;}.cls-33{fill:#ffaa83;}</style></defs><title>illustration</title><g id="Calque_2" data-name="Calque 2"><g id="Calque_1-2" data-name="Calque 1"><g id="Calques"><g id="Illustrations"><path id="_Path_" data-name="&lt;Path&gt;" class="cls-1" d="M916.67,632.11q130.71-251-59.73-264.81C652.45,352.5,794.64,129.76,677,134S380.45-33,275.19,62.1c-98.48,89,32.56,218-157.13,253.93-131.92,25-170.72,217-25.52,321Z"/><path id="_Path_2" data-name="&lt;Path&gt;" class="cls-2" d="M944.53,636.76c0,17.26-206,31.24-460.14,31.24s-422.1-11.7-422.1-28.95,168-33.54,422.1-33.54S944.53,619.5,944.53,636.76Z"/><g id="_Group_" data-name="&lt;Group&gt;"><g id="_Group_2" data-name="&lt;Group&gt;"><g id="_Group_3" data-name="&lt;Group&gt;"><g id="_Group_4" data-name="&lt;Group&gt;"><path id="_Path_3" data-name="&lt;Path&gt;" class="cls-3" d="M335.09,633.65H141.43V297.75H335.09Z"/></g><g id="_Group_5" data-name="&lt;Group&gt;"><path id="_Path_4" data-name="&lt;Path&gt;" class="cls-4" d="M335.09,329.91H141.43V297.75H335.09Z"/></g><g id="_Group_6" data-name="&lt;Group&gt;"><path id="_Path_5" data-name="&lt;Path&gt;" class="cls-5" d="M309.94,388.09a16.07,16.07,0,0,1-16.07,16.09H180.79a16.07,16.07,0,0,1,0-32.15H293.87A16.06,16.06,0,0,1,309.94,388.09Z"/></g><g id="_Group_7" data-name="&lt;Group&gt;"><path id="_Path_6" data-name="&lt;Path&gt;" class="cls-5" d="M309.94,444.64a16.07,16.07,0,0,1-16.07,16.08H180.79a16.08,16.08,0,0,1,0-32.16H293.87A16.07,16.07,0,0,1,309.94,444.64Z"/></g><g id="_Group_8" data-name="&lt;Group&gt;"><path id="_Path_7" data-name="&lt;Path&gt;" class="cls-6" d="M278.9,493.41A13.85,13.85,0,0,1,265,507.27H209.61a13.86,13.86,0,1,1,0-27.71H265A13.84,13.84,0,0,1,278.9,493.41Z"/></g><g id="_Group_9" data-name="&lt;Group&gt;"><path id="_Path_8" data-name="&lt;Path&gt;" class="cls-6" d="M309.94,350.41a6.09,6.09,0,0,1-6.1,6.1h-133a6.1,6.1,0,0,1,0-12.2h133A6.09,6.09,0,0,1,309.94,350.41Z"/></g><g id="_Group_10" data-name="&lt;Group&gt;"><path id="_Path_9" data-name="&lt;Path&gt;" class="cls-5" d="M178,308.83H149.2v-3.32H178Z"/></g><g id="_Group_11" data-name="&lt;Group&gt;"><path id="_Path_10" data-name="&lt;Path&gt;" class="cls-5" d="M178,315.49H149.2v-3.34H178Z"/></g><g id="_Group_12" data-name="&lt;Group&gt;"><path id="_Path_11" data-name="&lt;Path&gt;" class="cls-5" d="M178,322.14H149.2v-3.32H178Z"/></g></g><path id="_Path_12" data-name="&lt;Path&gt;" class="cls-7" d="M186.1,450.6a4,4,0,1,1-4-4A4,4,0,0,1,186.1,450.6Z"/><path id="_Path_13" data-name="&lt;Path&gt;" class="cls-7" d="M198.58,450.6a4,4,0,1,1-4-4A4,4,0,0,1,198.58,450.6Z"/><path id="_Path_14" data-name="&lt;Path&gt;" class="cls-7" d="M211.06,450.6a4,4,0,1,1-4-4A4,4,0,0,1,211.06,450.6Z"/><path id="_Path_15" data-name="&lt;Path&gt;" class="cls-7" d="M223.54,450.6a4,4,0,1,1-4-4A4,4,0,0,1,223.54,450.6Z"/><path id="_Path_16" data-name="&lt;Path&gt;" class="cls-7" d="M236,450.6a4,4,0,1,1-4-4A4,4,0,0,1,236,450.6Z"/><path id="_Path_17" data-name="&lt;Path&gt;" class="cls-7" d="M248.49,450.6a4,4,0,1,1-4-4A4,4,0,0,1,248.49,450.6Z"/></g><g id="_Group_13" data-name="&lt;Group&gt;"><g id="_Group_14" data-name="&lt;Group&gt;"><g id="_Group_15" data-name="&lt;Group&gt;"><path id="_Path_18" data-name="&lt;Path&gt;" class="cls-8" d="M851.12,525.27a24.83,24.83,0,0,1-24.82,24.81H305.09a24.83,24.83,0,0,1-24.81-24.81V197.42a24.83,24.83,0,0,1,24.81-24.82H826.3a24.83,24.83,0,0,1,24.82,24.82Z"/></g><g id="_Group_16" data-name="&lt;Group&gt;"><path id="_Path_19" data-name="&lt;Path&gt;" class="cls-9" d="M647.92,632H484.5l9.94-141.46H633Z"/></g><g id="_Group_17" data-name="&lt;Group&gt;"><path id="_Path_20" data-name="&lt;Path&gt;" class="cls-9" d="M851.12,525.27a24.83,24.83,0,0,1-24.82,24.81H305.09a24.83,24.83,0,0,1-24.81-24.81V197.42a24.83,24.83,0,0,1,24.81-24.82H826.3a24.83,24.83,0,0,1,24.82,24.82Z"/></g><g id="_Group_18" data-name="&lt;Group&gt;"><path id="_Path_21" data-name="&lt;Path&gt;" class="cls-10" d="M824.53,465.7H302.63v-268h521.9Z"/></g><g id="_Group_19" data-name="&lt;Group&gt;"><path id="_Path_22" data-name="&lt;Path&gt;" class="cls-11" d="M305.09,550.08H826.3a24.83,24.83,0,0,0,24.82-24.81V488H280.28v37.23A24.83,24.83,0,0,0,305.09,550.08Z"/></g><g id="_Group_20" data-name="&lt;Group&gt;"><path id="_Path_23" data-name="&lt;Path&gt;" class="cls-11" d="M719.76,609.66H404.9V632H719.76Z"/></g></g><g id="_Group_21" data-name="&lt;Group&gt;"><g id="_Group_22" data-name="&lt;Group&gt;"><path id="_Path_24" data-name="&lt;Path&gt;" class="cls-12" d="M466.21,141.72c-.91-2.77-.64-11.52,6.66-15.29,9.8-5.07,32.21-4.66,40.4-17.57s3.45-22.07,1-28.6-6.39-8.06-7.37-12,3.78-4.93,10.12,4.65c3,4.6,20.7,25.42,13.77,42.61C521.74,138,471.56,158.16,466.21,141.72Z"/><path id="_Path_25" data-name="&lt;Path&gt;" class="cls-13" d="M530.89,115.46c.06-.17.12-.35.17-.52q-13.48,18.27-39.65,23.47a66.51,66.51,0,0,0-.86,6.9C504.85,142,525.27,128.81,530.89,115.46Z"/><path id="_Compound_Path_" data-name="&lt;Compound Path&gt;" class="cls-12" d="M491.56,191.06c-5.22-27.79,3.94-41,1-55.4-3.46-17-32.82-12.37-43.33-7.83s-27.87,11.59-15,33.41c9,15.2,7.83,26.36,7.17,43.74,0,.46-.09.86-.13,1.32a.07.07,0,0,1-.06,0l.06,0c-4.6,49.51,28.78,44.06,29.08,36.88,3.93,19.14,34.6,24.3,35.41,9C507.5,219,492.14,194,491.56,191.06Z"/><path id="_Path_26" data-name="&lt;Path&gt;" class="cls-13" d="M451.51,112.67q6.23,7.74,1.19,13.89c-5.14,6.3,22.55,13.36,20.69,8.41-2.39-6.4-6.69-9.49-5.32-17.85Z"/><path id="_Path_27" data-name="&lt;Path&gt;" class="cls-14" d="M461.37,92.72c6.91,3.91,18.57,25.68,13.92,32.24-2,2.84-13.18,2.91-22.34-5.67-3.77-3.52-9.08-10.53-6.76-19.51C447.24,95.74,453.35,88.17,461.37,92.72Z"/><path id="_Path_28" data-name="&lt;Path&gt;" class="cls-15" d="M467.77,94.13c2,2.62,1.74,3.39-6.7,6.84s-10.08,3.27-8.69,5.16c4.12,5.49-2.42,5.8,2.56,12.34s-3.46,3.88-8.16-1.31c-.94-1-6-6-4-16.2C445.18,89.1,460.6,84.57,467.77,94.13Z"/><path id="_Path_29" data-name="&lt;Path&gt;" class="cls-16" d="M442.8,101a16.88,16.88,0,0,0,4,16.2c3.51,3.87,9.1,6.43,9.6,4.64.61-2.18-5.17-1.52-4.84-7.08s-3.36-5.79-3.65-10.48,3.27-4.66,12.81-8.57c3.85-1.6,4.25-3.35,3.37-4.85C456.3,86.12,445.33,91,442.8,101Z"/><path id="_Path_30" data-name="&lt;Path&gt;" class="cls-17" d="M494.58,197.85c-18.71,14.3-43.15,11.64-53.54,9.64-2.35,24.92-4.06,42.83-5.73,55.7,8.39,2.87,21,4.41,33.56,4.3.72-9,1.19-17.13,1.49-24.31a132.36,132.36,0,0,1,2.34,24.23c13.52-.48,26.22-3,32.45-7.82.26-2.57.5-5.07.62-7.43C507.06,227.76,499.08,207,494.58,197.85Z"/><path id="_Path_31" data-name="&lt;Path&gt;" class="cls-12" d="M455.57,141.71c-.76-2.8-5.8-9.94-14-9-11,1.19-29.64,14-43.64,7.73s-15-16.5-16.62-23.3,1-10.25-.4-14.1-5.89-2-5.94,9.49c0,5.51-3.45,32.7,11.85,43.18C406.83,169.43,460.13,158.4,455.57,141.71Z"/><path id="_Path_32" data-name="&lt;Path&gt;" class="cls-13" d="M386.73,155.69c-.14-.12-.31-.23-.45-.35q21.42,7.77,46.28-2.4a68.26,68.26,0,0,1,4.51,5.29C423.23,163.39,398.79,163.72,386.73,155.69Z"/></g><g id="_Group_23" data-name="&lt;Group&gt;"><g id="_Group_24" data-name="&lt;Group&gt;"><path id="_Path_33" data-name="&lt;Path&gt;" class="cls-10" d="M557.71,61.33,340.23,114.82,325.15,53.48,542.62,0Z"/></g><g id="_Group_25" data-name="&lt;Group&gt;"><path id="_Path_34" data-name="&lt;Path&gt;" class="cls-18" d="M545.77,12.82,328.3,66.3l-3.15-12.82L542.62,0Z"/></g><g id="_Group_26" data-name="&lt;Group&gt;"><path id="_Path_35" data-name="&lt;Path&gt;" class="cls-19" d="M538.62,31.6,342.23,79.9l-1.23-5,196.38-48.3Z"/></g><g id="_Group_27" data-name="&lt;Group&gt;"><path id="_Path_36" data-name="&lt;Path&gt;" class="cls-19" d="M540.67,39.94,344.28,88.24l-1.25-5,196.4-48.3Z"/></g><g id="_Group_28" data-name="&lt;Group&gt;"><path id="_Path_37" data-name="&lt;Path&gt;" class="cls-19" d="M542.72,48.27,346.34,96.57l-1.24-5L541.48,43.23Z"/></g></g></g><g id="_Group_29" data-name="&lt;Group&gt;"><path id="_Path_38" data-name="&lt;Path&gt;" class="cls-20" d="M317.62,518.21H270.94V210.12h46.68Z"/><g id="_Group_30" data-name="&lt;Group&gt;"><path id="_Path_39" data-name="&lt;Path&gt;" class="cls-6" d="M308.21,246.53H280.35v-28h27.86Z"/></g><g id="_Group_31" data-name="&lt;Group&gt;"><path id="_Path_40" data-name="&lt;Path&gt;" class="cls-3" d="M308.21,283.88H280.35v-28h27.86Z"/></g><g id="_Group_32" data-name="&lt;Group&gt;"><path id="_Path_41" data-name="&lt;Path&gt;" class="cls-10" d="M308.21,321.22H280.35v-28h27.86Z"/></g><path id="_Path_42" data-name="&lt;Path&gt;" class="cls-7" d="M308.21,358.57H280.35v-28h27.86Z"/><g id="_Group_33" data-name="&lt;Group&gt;"><path id="_Path_43" data-name="&lt;Path&gt;" class="cls-19" d="M308.21,395.91H280.35v-28h27.86Z"/></g><g id="_Group_34" data-name="&lt;Group&gt;"><path id="_Path_44" data-name="&lt;Path&gt;" class="cls-9" d="M308.21,433.26H280.35v-28h27.86Z"/></g><path id="_Path_45" data-name="&lt;Path&gt;" class="cls-21" d="M308.21,470.6H280.35v-28h27.86Z"/><g id="_Group_35" data-name="&lt;Group&gt;"><path id="_Path_46" data-name="&lt;Path&gt;" class="cls-6" d="M308.21,508H280.35v-28h27.86Z"/></g></g><g id="_Group_36" data-name="&lt;Group&gt;"><g id="_Group_37" data-name="&lt;Group&gt;"><path id="_Path_47" data-name="&lt;Path&gt;" class="cls-6" d="M656,570.41H865.39V361H656Z"/></g><g id="_Group_38" data-name="&lt;Group&gt;"><path id="_Path_48" data-name="&lt;Path&gt;" class="cls-22" d="M656,380.78H865.39V361H656Z"/></g><g id="_Group_39" data-name="&lt;Group&gt;"><path id="_Path_49" data-name="&lt;Path&gt;" class="cls-19" d="M848.45,371.6a4,4,0,1,0,4-4.58A4.34,4.34,0,0,0,848.45,371.6Z"/></g><g id="_Group_40" data-name="&lt;Group&gt;"><path id="_Path_50" data-name="&lt;Path&gt;" class="cls-19" d="M836.41,371.6a4,4,0,1,0,4-4.58A4.34,4.34,0,0,0,836.41,371.6Z"/></g><g id="_Group_41" data-name="&lt;Group&gt;"><path id="_Path_51" data-name="&lt;Path&gt;" class="cls-19" d="M824.36,371.6a4,4,0,1,0,4-4.58A4.33,4.33,0,0,0,824.36,371.6Z"/></g><g id="_Group_42" data-name="&lt;Group&gt;"><path id="_Path_52" data-name="&lt;Path&gt;" class="cls-23" d="M666.66,433.11H856.48v-35H666.66Z"/></g><g id="_Group_43" data-name="&lt;Group&gt;"><path id="_Path_53" data-name="&lt;Path&gt;" class="cls-23" d="M666.66,554.06H856.48v-35H666.66Z"/></g><g id="_Group_44" data-name="&lt;Group&gt;"><path id="_Path_54" data-name="&lt;Path&gt;" class="cls-23" d="M765.7,470.08h90.78v-31H765.7Z"/></g><g id="_Group_45" data-name="&lt;Group&gt;"><path id="_Path_55" data-name="&lt;Path&gt;" class="cls-23" d="M765.7,506.5h90.78v-31H765.7Z"/></g><g id="_Group_46" data-name="&lt;Group&gt;"><path id="_Path_56" data-name="&lt;Path&gt;" class="cls-23" d="M666.66,506.5h84.08V439.1H666.66Z"/></g></g><g id="_Group_47" data-name="&lt;Group&gt;"><g id="_Group_48" data-name="&lt;Group&gt;"><g id="_Group_49" data-name="&lt;Group&gt;"><path id="_Path_57" data-name="&lt;Path&gt;" class="cls-19" d="M785.2,496.45a18.28,18.28,0,0,1-18.27,18.29H365.5a18.27,18.27,0,0,1-18.27-18.29V244.73a18.28,18.28,0,0,1,18.27-18.27H766.93a18.29,18.29,0,0,1,18.27,18.27Z"/></g><g id="_Group_50" data-name="&lt;Group&gt;"><path id="_Path_58" data-name="&lt;Path&gt;" class="cls-24" d="M766.93,226.46H365.5a18.28,18.28,0,0,0-18.27,18.27v34h438v-34A18.29,18.29,0,0,0,766.93,226.46Z"/></g><g id="_Group_51" data-name="&lt;Group&gt;"><path id="_Path_59" data-name="&lt;Path&gt;" class="cls-19" d="M391.56,252.73a9.08,9.08,0,1,1-9.08-9.08A9.07,9.07,0,0,1,391.56,252.73Z"/></g><g id="_Group_52" data-name="&lt;Group&gt;"><path id="_Path_60" data-name="&lt;Path&gt;" class="cls-19" d="M414.5,252.73a9.08,9.08,0,1,1-9.09-9.08A9.07,9.07,0,0,1,414.5,252.73Z"/></g><g id="_Group_53" data-name="&lt;Group&gt;"><path id="_Path_61" data-name="&lt;Path&gt;" class="cls-19" d="M436.63,252.73a9.08,9.08,0,1,1-9.08-9.08A9.06,9.06,0,0,1,436.63,252.73Z"/></g></g><g id="_Group_54" data-name="&lt;Group&gt;"><path id="_Path_62" data-name="&lt;Path&gt;" class="cls-24" d="M716.33,495.57H569.63V458.51h146.7Z"/></g><path id="_Path_63" data-name="&lt;Path&gt;" class="cls-24" d="M553.6,490.68H367.3V289H553.6Z"/><g id="_Group_55" data-name="&lt;Group&gt;"><path id="_Path_64" data-name="&lt;Path&gt;" class="cls-25" d="M460.45,348.53a40.6,40.6,0,1,1-40.6-40.61A40.59,40.59,0,0,1,460.45,348.53Z"/><path id="_Path_65" data-name="&lt;Path&gt;" class="cls-19" d="M427.78,344a10.12,10.12,0,0,0,2.3-6.38A10.24,10.24,0,1,0,411.89,344a22.86,22.86,0,0,0-14.69,18.33h45.3A22.89,22.89,0,0,0,427.78,344Z"/></g><g id="_Group_56" data-name="&lt;Group&gt;"><path id="_Path_66" data-name="&lt;Path&gt;" class="cls-19" d="M537,477H470.36V307.92H537Z"/></g><path id="_Path_67" data-name="&lt;Path&gt;" class="cls-19" d="M460.45,475.14h-81.2V396.73h81.2Z"/><g id="_Group_57" data-name="&lt;Group&gt;"><g id="_Group_58" data-name="&lt;Group&gt;"><g id="_Group_59" data-name="&lt;Group&gt;"><path id="_Compound_Path_2" data-name="&lt;Compound Path&gt;" class="cls-12" d="M662.26,586.79c3.59,15.75,12.49,36.26,13.19,47.13.12,1.72-.12,2.37-5.7,3.86s-.35,4.88,9.2,5,5.56-45.94,1.47-67.59C676.84,556.27,658.11,568.49,662.26,586.79Z"/><path id="_Path_68" data-name="&lt;Path&gt;" class="cls-26" d="M683.19,638.32q-8.46,3.3-13.44-.54-9.43,1-3.63,3.76C671.91,644.29,683.22,646.84,683.19,638.32Z"/></g><g id="_Group_60" data-name="&lt;Group&gt;"><path id="_Compound_Path_3" data-name="&lt;Compound Path&gt;" class="cls-12" d="M602.64,527.06c8.83,13.53,24.31,29.65,28.77,39.59.71,1.56.71,2.26-4,5.6s1.36,4.69,10.37,1.5-10.8-45-22.18-63.87C605.65,493.36,592.37,511.35,602.64,527.06Z"/><path id="_Path_69" data-name="&lt;Path&gt;" class="cls-26" d="M640.2,568.07q-6.81,6-12.8,4.18-8.48,4.24-2.11,4.8C631.68,577.61,643.17,576,640.2,568.07Z"/></g><path id="_Path_70" data-name="&lt;Path&gt;" class="cls-21" d="M624.45,475.36q-39.36-14.46-41.64,4.45-2.05,17,35,74.52a21.19,21.19,0,0,0,18.77-6.8l-12-37.9,23.63-2.74-8-26.2Z"/><path id="_Path_71" data-name="&lt;Path&gt;" class="cls-7" d="M676.32,480.51,686.4,621.23l-16.68,1.07-34.84-143Q648,484.93,676.32,480.51Z"/><path id="_Path_72" data-name="&lt;Path&gt;" class="cls-27" d="M631.18,441.47q13.67-5.37,12.05-23c-1.57-17.64-15.56-57.08-16-63.63-.77-12,17.24-14.43,10.33-14.39-8.88.06-14.79-3.6-16.06,5.72-.89,6.45-2.23,67.52-.48,77.67S621.24,442,631.18,441.47Z"/><path id="_Compound_Path_4" data-name="&lt;Compound Path&gt;" class="cls-28" d="M677.79,489.5a.06.06,0,0,1,.06,0,.07.07,0,0,0-.06,0c-.11-.45-.17-.86-.28-1.3-2.66-17.29-5.09-28.3,2.1-44.5,10.28-23.25-7.86-28.29-18.87-31.59s-29.67-5.26-36.93,13.81c-5.22,13.74-7.54,33.26-3.58,48.06C624.74,490.78,683.63,508.7,677.79,489.5Z"/><g id="_Group_61" data-name="&lt;Group&gt;"><path id="_Path_73" data-name="&lt;Path&gt;" class="cls-29" d="M660.74,412.11c-1.08-.33-2.21-.62-3.4-.9.9,2.64,2.2,5.66,3.33,8.59,3.84,10,.23,15.74-17.19,18.44s1.36,13.24,12.17,15.65-4.88,5.88-20.86,10.9,23.93,10.15,32.54,14.37c5.78,2.82,3.89,12.49,2,18.6,6.33-.24,10.13-2.67,8.44-8.26-.11-.45-.17-.86-.28-1.3-2.66-17.29-5.09-28.3,2.1-44.5,2.4-5.43,3.21-9.83,3-13.48-.87-2.75-1.82-5.46-2.88-8C675.29,416.36,666.9,414,660.74,412.11Z"/></g><path id="_Path_74" data-name="&lt;Path&gt;" class="cls-27" d="M662,446.19q13.25,6.36,25.1-6.82C699,426.2,722,389.48,723.28,383s22-.8,17.14-5.73-7.39-8.48-15.08-3.06c-5.31,3.73-51,44.3-57.26,52.48S654.91,439.23,662,446.19Z"/><g id="_Group_62" data-name="&lt;Group&gt;"><path id="_Path_75" data-name="&lt;Path&gt;" class="cls-13" d="M674.31,405.35q-9.43,3.2-8.48,11.13c1,8.13-26.29-.75-22-4,5.45-4.15,10.76-4.45,14.09-12.3Z"/><path id="_Path_76" data-name="&lt;Path&gt;" class="cls-14" d="M676.64,383.1c-7.93-.37-29.55,11.83-29.12,19.9.19,3.49,9.65,9.54,22,7.17,5.09-1,13.36-4.08,16.2-12.92C687,393.23,685.9,383.53,676.64,383.1Z"/><path id="_Path_77" data-name="&lt;Path&gt;" class="cls-15" d="M670.46,380.88c-3,1.15-3.29,1.91,2,9.39s6.82,8.18,4.63,9c-6.45,2.45-1.06,6.23-8.81,9.12s.85,5.14,7.63,3.25c1.36-.4,8.37-1.89,12.08-11.6C692.34,388.72,681.7,376.59,670.46,380.88Z"/><path id="_Path_78" data-name="&lt;Path&gt;" class="cls-16" d="M688,400.07a16.93,16.93,0,0,1-12.08,11.6c-5.06,1.4-11.19.58-10.66-1.22.67-2.17,5.22,1.48,7.94-3.39s6-3.12,8.71-7-.3-5.7-6.25-14.14c-2.44-3.44-1.84-5.12-.28-5.93C684.51,380.22,691.2,390.23,688,400.07Z"/></g></g><g id="_Group_63" data-name="&lt;Group&gt;"><path id="_Path_79" data-name="&lt;Path&gt;" class="cls-3" d="M757.32,394.7l-171.8-67.77,49.23-124.8,171.8,67.76Z"/></g><g id="_Group_64" data-name="&lt;Group&gt;"><path id="_Path_80" data-name="&lt;Path&gt;" class="cls-19" d="M769.51,325.8,624.82,268.73l19.12-48.44,144.68,57.06Z"/></g><g id="_Group_65" data-name="&lt;Group&gt;"><path id="_Path_81" data-name="&lt;Path&gt;" class="cls-19" d="M760.61,348.37,615.92,291.31l-7.15,18.12,144.69,57.08Z"/></g></g></g></g></g><g id="_Group_66" data-name="&lt;Group&gt;"><g id="_Group_67" data-name="&lt;Group&gt;"><path id="_Compound_Path_5" data-name="&lt;Compound Path&gt;" class="cls-30" d="M90.86,577.1c-1.65,22.91-.26,71.09,9.62,69.81s14.91-5.44,8.93-6.31-6.28-1.5-6.36-3.31c-.58-11.33,6.18-33.63,8-50.38C113.13,567.47,92.29,557.05,90.86,577.1Z"/><path id="_Path_82" data-name="&lt;Path&gt;" class="cls-31" d="M95.55,642.77q9.18,2.41,13.86-2.17,9.9-.06,4.23,3.48C108,647.61,96.58,651.59,95.55,642.77Z"/></g><g id="_Group_68" data-name="&lt;Group&gt;"><path id="_Path_83" data-name="&lt;Path&gt;" class="cls-7" d="M166.72,645.38h12.86V310.17H166.72Z"/><path id="_Path_84" data-name="&lt;Path&gt;" class="cls-7" d="M121.82,645.38h12.86V310.17H121.82Z"/><path id="_Path_85" data-name="&lt;Path&gt;" class="cls-7" d="M124.47,341.53h55V326.81h-55Z"/><g id="_Group_69" data-name="&lt;Group&gt;"><path id="_Path_86" data-name="&lt;Path&gt;" class="cls-7" d="M124.47,381.11h55V366.4h-55Z"/><path id="_Path_87" data-name="&lt;Path&gt;" class="cls-7" d="M124.47,424.65h55V409.94h-55Z"/><path id="_Path_88" data-name="&lt;Path&gt;" class="cls-7" d="M124.47,480.06h55V465.35h-55Z"/><path id="_Path_89" data-name="&lt;Path&gt;" class="cls-7" d="M124.47,523.59h55V508.88h-55Z"/></g><path id="_Path_90" data-name="&lt;Path&gt;" class="cls-7" d="M124.47,575.05h55V560.34h-55Z"/><path id="_Path_91" data-name="&lt;Path&gt;" class="cls-7" d="M124.47,618.59h55V603.88h-55Z"/></g><path id="_Path_92" data-name="&lt;Path&gt;" class="cls-32" d="M102.88,499.38a79.36,79.36,0,0,1,6.34,18.33c6.16,30.36,6,34,6.1,42.61.19,14.59.77,42.92-10.62,67.76-1.08,2.38-12,3.24-12.57,0-4.05-23.59-8.35-27.32-4.79-54.43q-6.36-19.83-9-28.25c-7.66-23.83-6.42-27.68-2.55-39.73Z"/><g id="_Group_70" data-name="&lt;Group&gt;"><path id="_Compound_Path_6" data-name="&lt;Compound Path&gt;" class="cls-30" d="M140.44,524.68c-1.65,22.92-.27,71.1,9.61,69.81S165,589,159,588.19s-6.27-1.51-6.38-3.31c-.56-11.35,6.19-33.64,8-50.39C162.71,515,141.86,504.64,140.44,524.68Z"/><path id="_Path_93" data-name="&lt;Path&gt;" class="cls-31" d="M145.12,590.35q9.18,2.43,13.86-2.16,9.88-.07,4.22,3.45C157.55,595.19,146.14,599.18,145.12,590.35Z"/></g><path id="_Path_94" data-name="&lt;Path&gt;" class="cls-25" d="M115.9,496.81q34.27-26.88,45.34-10.4,9.95,14.81-1.86,80.62a22.16,22.16,0,0,1-20.66,2.57l-4.83-46.23Q101.94,543.73,91,536.16q-17.17-11.82-2.36-38.51Z"/><g id="_Group_71" data-name="&lt;Group&gt;"><path id="_Path_95" data-name="&lt;Path&gt;" class="cls-33" d="M121.85,398.71q7.37-15.06,8.62-9.93c1.18,5-1.72,4.28-4.24,12.08Z"/><path id="_Path_96" data-name="&lt;Path&gt;" class="cls-28" d="M72.39,449.65c-1.82,2.13-4.61,9.69,1.53,11,9.69,2.15,32.84-11.29,37.94-16.5q5.08-5.25,15-44.19c-1.5-2.41-3.46-2.94-5.89-1.56L98.8,433.16Q78.66,442.26,72.39,449.65Z"/></g><path id="_Path_97" data-name="&lt;Path&gt;" class="cls-28" d="M103.92,441.61c8.08,4.87,15.92,18,24,62.94,1.77,9.88-55.71,18.74-57,8.78-3.5-26.5-.21-37.93,4.72-62.72C76.92,443.86,87.93,431.93,103.92,441.61Z"/><g id="_Group_72" data-name="&lt;Group&gt;"><path id="_Path_98" data-name="&lt;Path&gt;" class="cls-33" d="M163.07,398.7q1.6-15,4.88-11c3.27,4,2.54,6-.71,13.55Z"/><path id="_Path_99" data-name="&lt;Path&gt;" class="cls-28" d="M108.93,444.64c-2,1.94-5.52,9.22.44,11.12,9.48,3.06,33.8-8.07,39.37-12.79q5.58-4.71,19.21-42.53c-1.27-2.54-3.17-3.23-5.7-2.09L136.8,430.78Q115.88,437.89,108.93,444.64Z"/></g><path id="_Path_100" data-name="&lt;Path&gt;" class="cls-16" d="M93.61,398.55c6.31.15,14.56,4.44,15.87,16.74s1.66,12.51,6.24,16.58c11.81,10.49-12.77,18.11-2.7,28,43.14,42.28-43.33,45.34-41.15,33.72,4.26-22.32-10.27-15.61-9.08-32.09.48-6.55-9.61-12.67,1.85-22.11,3.77-3.12-5.09-16.77,4.49-20.67S69.28,398,93.61,398.55Z"/></g></g></g></g></g></svg>