<svg xmlns="http://www.w3.org/2000/svg" viewBox="0 0 679.66 214.7"><defs><style>.cls-1{fill:#fff;}</style></defs><title>logo</title><g id="Calque_2" data-name="Calque 2"><g id="Calque_1-2" data-name="Calque 1"><g id="Calques"><g id="Logo"><path id="Schoolin" d="M42.49,55.3H68.76a40.51,40.51,0,0,1,16.65,3.42,38,38,0,0,1,13.45,9.61,39.17,39.17,0,0,1,8.76,14.52,50.75,50.75,0,0,1,3.2,18.36,50.28,50.28,0,0,1-3,17.51,40.57,40.57,0,0,1-8.11,14.09A40.38,40.38,0,0,1,87.12,142a37.62,37.62,0,0,1-16.23,3.42H4.7v-26.9H63.2a30.19,30.19,0,0,0,8.12-1.07,18.92,18.92,0,0,0,6.83-3.21,15.53,15.53,0,0,0,6.19-13q0-8.33-5.55-13a19.64,19.64,0,0,0-13.45-4.69H48a78.21,78.21,0,0,1-19.85-2.35A38.88,38.88,0,0,1,13,73.66a33.83,33.83,0,0,1-9.6-13.23Q0,52.31,0,41A43.73,43.73,0,0,1,2.78,25.62a40.87,40.87,0,0,1,7.68-13,36.31,36.31,0,0,1,12-9.19A35.33,35.33,0,0,1,38,0H98V28.4H49.11a45.57,45.57,0,0,0-7.9.64A17.65,17.65,0,0,0,34.8,31,9.09,9.09,0,0,0,30.53,35,15.84,15.84,0,0,0,29,42.49a12.9,12.9,0,0,0,3.63,9.18Q36.3,55.3,42.49,55.3ZM157.8,120.85h8.75a15.82,15.82,0,0,0,8.76-2.34,11.55,11.55,0,0,0,4.69-6.84h25.41q-1.92,15.38-12,24.56t-26.91,9.18H157.8a47.52,47.52,0,0,1-16.66-2.78,34.49,34.49,0,0,1-12.6-7.9,39.89,39.89,0,0,1-8.11-12.59,46.88,46.88,0,0,1-2.78-16.45V76.44A45.71,45.71,0,0,1,120.43,60a37.54,37.54,0,0,1,8.11-12.39,34.67,34.67,0,0,1,12.6-7.9,44.52,44.52,0,0,1,16.66-3h8.75q17.3,0,27.33,9.19T205.41,71.1H180.22a13,13,0,0,0-4.7-7.26,14.59,14.59,0,0,0-9-2.56H157.8a15.34,15.34,0,0,0-11.32,4.48q-4.27,4.27-4.27,11.32v27.76a16,16,0,0,0,4.27,11.53A15.34,15.34,0,0,0,157.8,120.85ZM260.5,61.07h-5.33A24.38,24.38,0,0,0,246,62.56a12.26,12.26,0,0,0-5.33,3.63A14.43,14.43,0,0,0,237.87,72a36,36,0,0,0-.64,7v66.41H213.31V0h23.92V39.07a51.77,51.77,0,0,1,6.62-1.71,44.27,44.27,0,0,1,7.69-.64h12.81a39.33,39.33,0,0,1,16.44,3.21,33.82,33.82,0,0,1,12,8.54,32.15,32.15,0,0,1,7.26,12,39.94,39.94,0,0,1,2.35,13.45v71.53H278.23V79a36,36,0,0,0-.64-7,11.52,11.52,0,0,0-2.78-5.77,12.25,12.25,0,0,0-5.34-3.63A22.68,22.68,0,0,0,260.5,61.07Zm90.33-24.35h8.75a43.46,43.46,0,0,1,16.66,3,34.67,34.67,0,0,1,12.6,7.9A33.63,33.63,0,0,1,397,60a45.85,45.85,0,0,1,2.77,16.44v29.25A47,47,0,0,1,397,122.14a35.56,35.56,0,0,1-8.11,12.59,34.49,34.49,0,0,1-12.6,7.9,46.38,46.38,0,0,1-16.66,2.78h-8.75a47.52,47.52,0,0,1-16.66-2.78,36.6,36.6,0,0,1-12.81-7.9,37.09,37.09,0,0,1-7.9-12.59,50.53,50.53,0,0,1-2.56-16.45V76.44A49.25,49.25,0,0,1,313.46,60a35,35,0,0,1,7.9-12.39,36.79,36.79,0,0,1,12.81-7.9A44.52,44.52,0,0,1,350.83,36.72Zm8.75,24.56h-8.75a15.82,15.82,0,0,0-11.32,4.48Q335,70,335,77.08v27.76a15.61,15.61,0,0,0,4.48,11.53,15.82,15.82,0,0,0,11.32,4.48h8.75a14.67,14.67,0,0,0,11.11-4.48,15.61,15.61,0,0,0,4.48-11.53V77.08q0-7.05-4.48-11.32A14.67,14.67,0,0,0,359.58,61.28Zm88-24.56h8.75a43.46,43.46,0,0,1,16.66,3,34.57,34.57,0,0,1,12.59,7.9A33.57,33.57,0,0,1,493.68,60a45.86,45.86,0,0,1,2.77,16.44v29.25a47,47,0,0,1-2.77,16.45,35.49,35.49,0,0,1-8.12,12.59,34.39,34.39,0,0,1-12.59,7.9,46.38,46.38,0,0,1-16.66,2.78h-8.75a47.47,47.47,0,0,1-16.66-2.78,33,33,0,0,1-20.71-20.49,50.53,50.53,0,0,1-2.56-16.45V76.44A49.25,49.25,0,0,1,410.19,60a34.82,34.82,0,0,1,7.9-12.39,36.79,36.79,0,0,1,12.81-7.9A44.47,44.47,0,0,1,447.56,36.72Zm8.75,24.56h-8.75a15.82,15.82,0,0,0-11.32,4.48q-4.49,4.27-4.49,11.32v27.76a15.59,15.59,0,0,0,4.49,11.53,15.82,15.82,0,0,0,11.32,4.48h8.75a14.64,14.64,0,0,0,11.1-4.48,15.59,15.59,0,0,0,4.49-11.53V77.08q0-7.05-4.49-11.32A14.64,14.64,0,0,0,456.31,61.28Zm51.89,84.13V0h25.19V145.41Z"/><path id="Schoolin-2" data-name="Schoolin" class="cls-1" d="M574,36.72V145.41H548.77V36.72ZM574,0V25H548.77V0Zm63.21,61.07H632a24.35,24.35,0,0,0-9.18,1.49,12.33,12.33,0,0,0-5.34,3.63A14.5,14.5,0,0,0,614.75,72a36,36,0,0,0-.64,7v66.41h-25V36.72h25V39.5a45.53,45.53,0,0,1,16-2.78h11.11a40.81,40.81,0,0,1,16.65,3.21,33.82,33.82,0,0,1,12,8.54,32.15,32.15,0,0,1,7.26,12,37,37,0,0,1,2.56,13.45v71.53h-25V79a36,36,0,0,0-.64-7,12.61,12.61,0,0,0-2.56-5.77,10.8,10.8,0,0,0-5.13-3.63A23.38,23.38,0,0,0,637.17,61.07Z"/><path id="PLATEFORME_DE_GESTION_SCOLAIRE" data-name="PLATEFORME DE GESTION SCOLAIRE" class="cls-1" d="M5.41,214.41A3.43,3.43,0,0,1,4,214.09a1.11,1.11,0,0,1-.65-1V192a1.16,1.16,0,0,1,.46-.91,1.72,1.72,0,0,1,1.17-.39h6.49a9.24,9.24,0,0,1,3.73.72,5.53,5.53,0,0,1,2.66,2.34,8,8,0,0,1,1,4.25v.19a8.06,8.06,0,0,1-1,4.29A5.94,5.94,0,0,1,15,204.84a10,10,0,0,1-3.86.71H7.52v7.53a1.11,1.11,0,0,1-.65,1A3.22,3.22,0,0,1,5.41,214.41Zm2.11-20v7.86h3.64a3.32,3.32,0,0,0,2.5-.91,3.91,3.91,0,0,0,.91-2.82v-.39a3.78,3.78,0,0,0-.91-2.79,3.24,3.24,0,0,0-2.5-1Zm-3,20a3.39,3.39,0,0,1-1.46-.32,1.11,1.11,0,0,1-.65-1V192a1.17,1.17,0,0,1,.45-.91,1.75,1.75,0,0,1,1.17-.39h6.49a9.31,9.31,0,0,1,3.74.72A5.59,5.59,0,0,1,17,193.74a8.11,8.11,0,0,1,1,4.25v.19a8.06,8.06,0,0,1-1,4.29,5.88,5.88,0,0,1-2.75,2.37,10.06,10.06,0,0,1-3.87.71H6.67v7.53a1.11,1.11,0,0,1-.65,1A3.26,3.26,0,0,1,4.56,214.41Zm2.11-20v7.86H10.3a3.3,3.3,0,0,0,2.5-.91,3.91,3.91,0,0,0,.91-2.82v-.39a3.78,3.78,0,0,0-.91-2.79,3.22,3.22,0,0,0-2.5-1Zm33.7,20H30a2.62,2.62,0,0,1-1.27-.32,1.13,1.13,0,0,1-.58-1V192a1,1,0,0,1,.65-1,3.3,3.3,0,0,1,1.46-.33,3.18,3.18,0,0,1,1.46.33,1,1,0,0,1,.65,1v18.73h8a1,1,0,0,1,.91.58,2.51,2.51,0,0,1,.32,1.27,2.62,2.62,0,0,1-.32,1.27A1,1,0,0,1,40.37,214.41Zm-.86,0H29.19a2.57,2.57,0,0,1-1.26-.32,1.12,1.12,0,0,1-.59-1V192a1,1,0,0,1,.65-1,3.3,3.3,0,0,1,1.46-.33,3.18,3.18,0,0,1,1.46.33,1,1,0,0,1,.65,1v18.73h8a1,1,0,0,1,.91.58,2.45,2.45,0,0,1,.33,1.27,2.56,2.56,0,0,1-.33,1.27A1,1,0,0,1,39.51,214.41Zm12.19,0a3.39,3.39,0,0,1-1.2-.23,3,3,0,0,1-1-.61,1.21,1.21,0,0,1-.42-.91,2.91,2.91,0,0,1,0-.33l6.26-20.41a1.74,1.74,0,0,1,1-1.07,4.19,4.19,0,0,1,1.72-.36,4.05,4.05,0,0,1,1.72.36,1.7,1.7,0,0,1,1,1.07L67,212.33a1.51,1.51,0,0,1,.06.33,1.26,1.26,0,0,1-.45.91,3,3,0,0,1-1,.61,3.44,3.44,0,0,1-1.2.23,2.39,2.39,0,0,1-.91-.16,1,1,0,0,1-.49-.68l-1.23-4.32H54.33l-1.21,4.32a1,1,0,0,1-.51.68A2.39,2.39,0,0,1,51.7,214.41ZM58.06,196l-2.83,10h5.65Zm-7.22,18.44a3.44,3.44,0,0,1-1.2-.23,3,3,0,0,1-1-.61,1.21,1.21,0,0,1-.42-.91,2.92,2.92,0,0,1,0-.33l6.27-20.41a1.7,1.7,0,0,1,1-1.07,4.19,4.19,0,0,1,1.72-.36,4.05,4.05,0,0,1,1.72.36,1.73,1.73,0,0,1,1,1.07l6.26,20.41a1.31,1.31,0,0,1,.07.33,1.25,1.25,0,0,1-.46.91,3,3,0,0,1-1,.61,3.39,3.39,0,0,1-1.2.23,2.31,2.31,0,0,1-.9-.16,1,1,0,0,1-.49-.68l-1.23-4.32H53.47l-1.2,4.32a1,1,0,0,1-.52.68A2.39,2.39,0,0,1,50.84,214.41ZM57.2,196l-2.82,10H60Zm23.51,18.44a3.26,3.26,0,0,1-1.46-.32,1.11,1.11,0,0,1-.65-1v-18.6H73.83a1.1,1.1,0,0,1-1-.58,2.5,2.5,0,0,1-.36-1.33,2.56,2.56,0,0,1,.33-1.27,1.06,1.06,0,0,1,1-.62H87.56a1,1,0,0,1,1,.62,2.62,2.62,0,0,1,.32,1.27,2.5,2.5,0,0,1-.36,1.33,1,1,0,0,1-1,.58H82.82v18.6a1.11,1.11,0,0,1-.68,1A3.19,3.19,0,0,1,80.71,214.41Zm-.85,0a3.26,3.26,0,0,1-1.46-.32,1.11,1.11,0,0,1-.65-1v-18.6H73a1.1,1.1,0,0,1-1-.58,2.56,2.56,0,0,1-.35-1.33A2.62,2.62,0,0,1,72,191.3a1.06,1.06,0,0,1,1-.62H86.71a1,1,0,0,1,1,.62,2.56,2.56,0,0,1,.33,1.27,2.5,2.5,0,0,1-.36,1.33,1.05,1.05,0,0,1-1,.58H82v18.6a1.11,1.11,0,0,1-.68,1A3.19,3.19,0,0,1,79.86,214.41Zm31.49,0H99.8a2.62,2.62,0,0,1-1.27-.32,1.13,1.13,0,0,1-.58-1V192a1.06,1.06,0,0,1,.58-1,2.4,2.4,0,0,1,1.27-.36h11.55a1,1,0,0,1,1,.59,2.51,2.51,0,0,1,.32,1.23,2.43,2.43,0,0,1-.35,1.33,1.07,1.07,0,0,1-1,.55h-9.18v6.5h4.93a1.07,1.07,0,0,1,1,.51,1.92,1.92,0,0,1,.36,1.17,2.19,2.19,0,0,1-.32,1.11,1.07,1.07,0,0,1-1,.52h-4.93v6.52h9.18a1.07,1.07,0,0,1,1,.55,2.43,2.43,0,0,1,.35,1.33,2.56,2.56,0,0,1-.32,1.24A1,1,0,0,1,111.35,214.41Zm-.85,0H98.94a2.57,2.57,0,0,1-1.26-.32,1.12,1.12,0,0,1-.59-1V192a1.06,1.06,0,0,1,.59-1,2.34,2.34,0,0,1,1.26-.36H110.5a1,1,0,0,1,1,.59,2.45,2.45,0,0,1,.33,1.23,2.38,2.38,0,0,1-.36,1.33,1,1,0,0,1-1,.55h-9.19v6.5h4.93a1.09,1.09,0,0,1,1,.51,2,2,0,0,1,.35,1.17,2.19,2.19,0,0,1-.32,1.11,1.06,1.06,0,0,1-1,.52h-4.93v6.52h9.19a1,1,0,0,1,1,.55,2.38,2.38,0,0,1,.36,1.33,2.5,2.5,0,0,1-.33,1.24A1,1,0,0,1,110.5,214.41Zm13.57,0a3.43,3.43,0,0,1-1.46-.32,1.11,1.11,0,0,1-.65-1V192a1.06,1.06,0,0,1,.59-1,2.34,2.34,0,0,1,1.26-.36h11.33a1,1,0,0,1,1,.59,2.51,2.51,0,0,1,.32,1.23,2.43,2.43,0,0,1-.35,1.33,1.07,1.07,0,0,1-1,.55h-9v6.5h5a1.07,1.07,0,0,1,1,.51,1.92,1.92,0,0,1,.36,1.17,2.19,2.19,0,0,1-.32,1.11,1.07,1.07,0,0,1-1,.52h-5v8.89a1.11,1.11,0,0,1-.64,1A3.28,3.28,0,0,1,124.07,214.41Zm-.85,0a3.39,3.39,0,0,1-1.46-.32,1.11,1.11,0,0,1-.65-1V192a1.06,1.06,0,0,1,.58-1,2.4,2.4,0,0,1,1.27-.36h11.33a1,1,0,0,1,1,.59,2.45,2.45,0,0,1,.33,1.23,2.38,2.38,0,0,1-.36,1.33,1,1,0,0,1-1,.55h-9v6.5h5a1.09,1.09,0,0,1,1,.51,1.92,1.92,0,0,1,.36,1.17,2.14,2.14,0,0,1-.33,1.11,1.06,1.06,0,0,1-1,.52h-5v8.89a1.11,1.11,0,0,1-.65,1A3.26,3.26,0,0,1,123.22,214.41Zm29.09.19a10,10,0,0,1-3.86-.71,6,6,0,0,1-2.73-2.37,8.32,8.32,0,0,1-1-4.35v-9.05a8.16,8.16,0,0,1,1-4.32,5.7,5.7,0,0,1,2.7-2.37,10.39,10.39,0,0,1,7.75,0,5.59,5.59,0,0,1,2.76,2.37,8.09,8.09,0,0,1,1,4.32v9.05a8.25,8.25,0,0,1-1,4.35,5.87,5.87,0,0,1-2.76,2.37A10,10,0,0,1,152.31,214.6Zm0-3.7a3.4,3.4,0,0,0,2.5-.9,3.86,3.86,0,0,0,.91-2.83v-9.05a3.86,3.86,0,0,0-.91-2.83,3.89,3.89,0,0,0-5,0,3.86,3.86,0,0,0-.91,2.83v9.05a3.86,3.86,0,0,0,.91,2.83A3.4,3.4,0,0,0,152.31,210.9Zm-.85,3.7a10.06,10.06,0,0,1-3.87-.71,5.91,5.91,0,0,1-2.72-2.37,8.25,8.25,0,0,1-1-4.35v-9.05a8.09,8.09,0,0,1,1-4.32,5.64,5.64,0,0,1,2.69-2.37,9.67,9.67,0,0,1,3.9-.75,9.56,9.56,0,0,1,3.86.75,5.65,5.65,0,0,1,2.76,2.37,8.16,8.16,0,0,1,1,4.32v9.05a8.32,8.32,0,0,1-1,4.35,5.94,5.94,0,0,1-2.76,2.37A10,10,0,0,1,151.46,214.6Zm0-3.7a3.4,3.4,0,0,0,2.5-.9,3.89,3.89,0,0,0,.9-2.83v-9.05a3.89,3.89,0,0,0-.9-2.83,3.89,3.89,0,0,0-5,0,3.86,3.86,0,0,0-.91,2.83v9.05A3.86,3.86,0,0,0,149,210,3.4,3.4,0,0,0,151.46,210.9Zm31.94,3.67a1.58,1.58,0,0,1-.84-.26,1.8,1.8,0,0,1-.62-.74l-4.6-9h-2.73v8.47a1.11,1.11,0,0,1-.65,1,3.26,3.26,0,0,1-1.46.32,3.39,3.39,0,0,1-1.46-.32,1.11,1.11,0,0,1-.65-1V192a1.3,1.3,0,0,1,.36-.91,1.35,1.35,0,0,1,1-.39h6.43a11.32,11.32,0,0,1,3.86.62,5.59,5.59,0,0,1,2.79,2.11,6.9,6.9,0,0,1,1,4.06,8.39,8.39,0,0,1-.55,3.21,5.42,5.42,0,0,1-1.53,2.11,6.38,6.38,0,0,1-2.17,1.17l4.28,7.89a1,1,0,0,1,.1.29,1,1,0,0,1,0,.23,1.72,1.72,0,0,1-.39,1,3,3,0,0,1-1,.85A2.56,2.56,0,0,1,183.4,214.57Zm-8.79-20.19v6.92h3.57a3.84,3.84,0,0,0,2.53-.78,4.29,4.29,0,0,0,0-5.36,3.84,3.84,0,0,0-2.53-.78Zm7.94,20.19a1.58,1.58,0,0,1-.84-.26,1.8,1.8,0,0,1-.62-.74l-4.61-9h-2.73v8.47a1.11,1.11,0,0,1-.65,1,3.22,3.22,0,0,1-1.46.32,3.39,3.39,0,0,1-1.46-.32,1.11,1.11,0,0,1-.65-1V192a1.3,1.3,0,0,1,.36-.91,1.37,1.37,0,0,1,1-.39h6.42a11.36,11.36,0,0,1,3.87.62,5.59,5.59,0,0,1,2.79,2.11,6.9,6.9,0,0,1,1,4.06,8.26,8.26,0,0,1-.56,3.21,5.47,5.47,0,0,1-1.52,2.11,6.36,6.36,0,0,1-2.18,1.17l4.29,7.89a1.64,1.64,0,0,1,.1.29,1,1,0,0,1,0,.23,1.72,1.72,0,0,1-.39,1,3,3,0,0,1-1,.85A2.51,2.51,0,0,1,182.55,214.57Zm-8.8-20.19v6.92h3.57a3.88,3.88,0,0,0,2.54-.78,4.29,4.29,0,0,0,0-5.36,3.88,3.88,0,0,0-2.54-.78Zm24,20a3.39,3.39,0,0,1-1.46-.32,1.11,1.11,0,0,1-.65-1V192.79a1.85,1.85,0,0,1,.65-1.62,2.45,2.45,0,0,1,1.46-.49,4.24,4.24,0,0,1,1.3.17,2.19,2.19,0,0,1,1,.65,6.22,6.22,0,0,1,1,1.42l4,7.27,4-7.27a11.64,11.64,0,0,1,1-1.42,2.18,2.18,0,0,1,1-.65,4.38,4.38,0,0,1,1.29-.17,2.36,2.36,0,0,1,1.46.49,1.85,1.85,0,0,1,.65,1.62v20.29a1.11,1.11,0,0,1-.68,1,3.19,3.19,0,0,1-1.43.32,3.39,3.39,0,0,1-1.46-.32,1.11,1.11,0,0,1-.65-1v-14l-3.76,6.75a1.72,1.72,0,0,1-1.46.85,2,2,0,0,1-.75-.16,1.82,1.82,0,0,1-.65-.69l-3.73-7v14.22a1.11,1.11,0,0,1-.65,1A3.26,3.26,0,0,1,197.75,214.41Zm-.86,0a3.43,3.43,0,0,1-1.46-.32,1.11,1.11,0,0,1-.64-1V192.79a1.86,1.86,0,0,1,.64-1.62,2.48,2.48,0,0,1,1.46-.49,4.24,4.24,0,0,1,1.3.17,2.25,2.25,0,0,1,1,.65,6.22,6.22,0,0,1,1,1.42l4,7.27,4-7.27a11.07,11.07,0,0,1,1-1.42,2.25,2.25,0,0,1,1-.65,4.42,4.42,0,0,1,1.3-.17,2.37,2.37,0,0,1,1.46.49,1.85,1.85,0,0,1,.65,1.62v20.29a1.11,1.11,0,0,1-.68,1,3.19,3.19,0,0,1-1.43.32,3.39,3.39,0,0,1-1.46-.32,1.11,1.11,0,0,1-.65-1v-14l-3.77,6.75a1.72,1.72,0,0,1-1.46.85,2,2,0,0,1-.74-.16,1.82,1.82,0,0,1-.65-.69l-3.74-7v14.22a1.11,1.11,0,0,1-.64,1A3.28,3.28,0,0,1,196.89,214.41Zm41.66,0H227a2.57,2.57,0,0,1-1.26-.32,1.12,1.12,0,0,1-.59-1V192a1.06,1.06,0,0,1,.59-1,2.34,2.34,0,0,1,1.26-.36h11.56a1,1,0,0,1,1,.59,2.45,2.45,0,0,1,.33,1.23,2.38,2.38,0,0,1-.36,1.33,1,1,0,0,1-1,.55h-9.19v6.5h4.94a1.07,1.07,0,0,1,1,.51,1.92,1.92,0,0,1,.36,1.17,2.14,2.14,0,0,1-.33,1.11,1,1,0,0,1-1,.52h-4.94v6.52h9.19a1,1,0,0,1,1,.55,2.38,2.38,0,0,1,.36,1.33,2.5,2.5,0,0,1-.33,1.24A1,1,0,0,1,238.55,214.41Zm-.86,0H226.14a2.62,2.62,0,0,1-1.27-.32,1.13,1.13,0,0,1-.58-1V192a1.06,1.06,0,0,1,.58-1,2.4,2.4,0,0,1,1.27-.36h11.55a1,1,0,0,1,1,.59,2.51,2.51,0,0,1,.32,1.23,2.43,2.43,0,0,1-.35,1.33,1.07,1.07,0,0,1-1,.55h-9.18v6.5h4.93a1.07,1.07,0,0,1,1,.51,1.92,1.92,0,0,1,.36,1.17,2.19,2.19,0,0,1-.32,1.11,1.07,1.07,0,0,1-1,.52h-4.93v6.52h9.18a1.07,1.07,0,0,1,1,.55,2.43,2.43,0,0,1,.35,1.33,2.57,2.57,0,0,1-.32,1.24A1,1,0,0,1,237.69,214.41Zm32.37,0h-5.74A2.18,2.18,0,0,1,263,214a1.14,1.14,0,0,1-.49-.91V192a1.14,1.14,0,0,1,.49-.91,2.18,2.18,0,0,1,1.36-.39h5.74a9.67,9.67,0,0,1,3.9.75,5.62,5.62,0,0,1,2.72,2.37,7.91,7.91,0,0,1,1,4.32V207a8.1,8.1,0,0,1-1,4.35A5.91,5.91,0,0,1,274,213.7,10.14,10.14,0,0,1,270.06,214.41Zm-3.37-20v16.33h3.37a3.4,3.4,0,0,0,2.53-.91,3.91,3.91,0,0,0,.91-2.82v-8.86a3.78,3.78,0,0,0-.91-2.79,3.26,3.26,0,0,0-2.49-1Zm2.52,20h-5.75a2.21,2.21,0,0,1-1.36-.39,1.14,1.14,0,0,1-.49-.91V192a1.14,1.14,0,0,1,.49-.91,2.21,2.21,0,0,1,1.36-.39h5.75a9.64,9.64,0,0,1,3.89.75,5.67,5.67,0,0,1,2.73,2.37,7.91,7.91,0,0,1,1,4.32V207a8.1,8.1,0,0,1-1,4.35,6,6,0,0,1-2.73,2.37A10.11,10.11,0,0,1,269.21,214.41Zm-3.38-20v16.33h3.38a3.42,3.42,0,0,0,2.53-.91,3.91,3.91,0,0,0,.91-2.82v-8.86a3.78,3.78,0,0,0-.91-2.79,3.3,3.3,0,0,0-2.5-1Zm35.72,20H290a2.57,2.57,0,0,1-1.26-.32,1.12,1.12,0,0,1-.59-1V192a1.06,1.06,0,0,1,.59-1,2.34,2.34,0,0,1,1.26-.36h11.56a1,1,0,0,1,1,.59,2.45,2.45,0,0,1,.33,1.23,2.38,2.38,0,0,1-.36,1.33,1,1,0,0,1-1,.55h-9.19v6.5h4.93a1.09,1.09,0,0,1,1,.51,2,2,0,0,1,.35,1.17,2.19,2.19,0,0,1-.32,1.11,1.06,1.06,0,0,1-1,.52h-4.93v6.52h9.19a1,1,0,0,1,1,.55,2.38,2.38,0,0,1,.36,1.33,2.5,2.5,0,0,1-.33,1.24A1,1,0,0,1,301.55,214.41Zm-.86,0H289.14a2.59,2.59,0,0,1-1.27-.32,1.13,1.13,0,0,1-.58-1V192a1.06,1.06,0,0,1,.58-1,2.36,2.36,0,0,1,1.27-.36h11.55a1,1,0,0,1,1,.59,2.51,2.51,0,0,1,.32,1.23,2.38,2.38,0,0,1-.36,1.33,1,1,0,0,1-1,.55h-9.18v6.5h4.93a1.07,1.07,0,0,1,1,.51,1.92,1.92,0,0,1,.36,1.17,2.14,2.14,0,0,1-.33,1.11,1,1,0,0,1-1,.52h-4.93v6.52h9.18a1,1,0,0,1,1,.55,2.38,2.38,0,0,1,.36,1.33,2.57,2.57,0,0,1-.32,1.24A1,1,0,0,1,300.69,214.41Zm32.14.19a10,10,0,0,1-3.86-.71,5.91,5.91,0,0,1-2.72-2.37,8.25,8.25,0,0,1-1-4.35v-9.05a8.09,8.09,0,0,1,1-4.32,5.64,5.64,0,0,1,2.69-2.37,9.3,9.3,0,0,1,3.76-.75,9.93,9.93,0,0,1,4,.75,6.47,6.47,0,0,1,2.76,2.14,5.61,5.61,0,0,1,1,3.35,2,2,0,0,1-.52,1.62,2.65,2.65,0,0,1-1.59.39,3.42,3.42,0,0,1-1.46-.29,1.12,1.12,0,0,1-.65-1,4.44,4.44,0,0,0-.32-1.5,2.46,2.46,0,0,0-1-1.23,3.64,3.64,0,0,0-2.11-.49,3.3,3.3,0,0,0-2.5,1,3.8,3.8,0,0,0-.9,2.79v9.05a4,4,0,0,0,.9,2.83,3.92,3.92,0,0,0,5,0,4,4,0,0,0,.91-2.83v-1.91h-2.63a1.12,1.12,0,0,1-1-.52,2.12,2.12,0,0,1,0-2.27,1.12,1.12,0,0,1,1-.52h5.52a1.14,1.14,0,0,1,1,.42,1.34,1.34,0,0,1,.36.94v3.86a8.32,8.32,0,0,1-1,4.35,5.94,5.94,0,0,1-2.76,2.37A10.06,10.06,0,0,1,332.83,214.6Zm-.85,0a10,10,0,0,1-3.86-.71,6,6,0,0,1-2.73-2.37,8.25,8.25,0,0,1-1-4.35v-9.05a8.09,8.09,0,0,1,1-4.32,5.7,5.7,0,0,1,2.69-2.37,9.33,9.33,0,0,1,3.77-.75,9.91,9.91,0,0,1,4,.75,6.47,6.47,0,0,1,2.76,2.14,5.57,5.57,0,0,1,1,3.35,2,2,0,0,1-.52,1.62,2.65,2.65,0,0,1-1.59.39,3.37,3.37,0,0,1-1.46-.29,1.12,1.12,0,0,1-.65-1,4.62,4.62,0,0,0-.33-1.5,2.48,2.48,0,0,0-1-1.23,3.64,3.64,0,0,0-2.11-.49,3.3,3.3,0,0,0-2.5,1,3.78,3.78,0,0,0-.91,2.79v9.05a4,4,0,0,0,.91,2.83,3.92,3.92,0,0,0,5,0,4,4,0,0,0,.91-2.83v-1.91h-2.63a1.13,1.13,0,0,1-1-.52,2.17,2.17,0,0,1,0-2.27,1.13,1.13,0,0,1,1-.52h5.51a1.17,1.17,0,0,1,1,.42,1.34,1.34,0,0,1,.36.94v3.86a8.25,8.25,0,0,1-1,4.35,5.94,5.94,0,0,1-2.76,2.37A10,10,0,0,1,332,214.6Zm32-.19H352.44a2.62,2.62,0,0,1-1.27-.32,1.13,1.13,0,0,1-.58-1V192a1.06,1.06,0,0,1,.58-1,2.4,2.4,0,0,1,1.27-.36H364a1,1,0,0,1,1,.59,2.51,2.51,0,0,1,.32,1.23,2.43,2.43,0,0,1-.35,1.33,1.07,1.07,0,0,1-1,.55h-9.18v6.5h4.93a1.07,1.07,0,0,1,1,.51,1.92,1.92,0,0,1,.36,1.17,2.19,2.19,0,0,1-.32,1.11,1.07,1.07,0,0,1-1,.52h-4.93v6.52H364a1.07,1.07,0,0,1,1,.55,2.43,2.43,0,0,1,.35,1.33,2.57,2.57,0,0,1-.32,1.24A1,1,0,0,1,364,214.41Zm-.85,0H351.58a2.57,2.57,0,0,1-1.26-.32,1.12,1.12,0,0,1-.59-1V192a1.06,1.06,0,0,1,.59-1,2.34,2.34,0,0,1,1.26-.36h11.56a1,1,0,0,1,1,.59,2.45,2.45,0,0,1,.33,1.23,2.37,2.37,0,0,1-.36,1.33,1,1,0,0,1-1,.55H354v6.5h4.93a1.09,1.09,0,0,1,1,.51,1.92,1.92,0,0,1,.36,1.17,2.14,2.14,0,0,1-.33,1.11,1.06,1.06,0,0,1-1,.52H354v6.52h9.19a1,1,0,0,1,1,.55,2.37,2.37,0,0,1,.36,1.33,2.5,2.5,0,0,1-.33,1.24A1,1,0,0,1,363.14,214.41Zm17.79.29a11.4,11.4,0,0,1-3.83-.61,8.24,8.24,0,0,1-2.69-1.53,2.68,2.68,0,0,1-1-1.88,2.49,2.49,0,0,1,.91-1.88,1.35,1.35,0,0,1,.94-.39,1.46,1.46,0,0,1,1,.39q.46.35,1,.87a6.23,6.23,0,0,0,1.43.88,5.39,5.39,0,0,0,2.07.35,5.28,5.28,0,0,0,1.79-.29,3,3,0,0,0,1.33-.94,2.39,2.39,0,0,0,.52-1.59,2.77,2.77,0,0,0-.55-1.75,4.57,4.57,0,0,0-1.5-1.23q-.94-.52-2-1t-2.24-1a10.62,10.62,0,0,1-2-1.33A6.69,6.69,0,0,1,374.7,194a5.93,5.93,0,0,1,1.85-2,7.68,7.68,0,0,1,2.57-1.1,11.09,11.09,0,0,1,2.79-.36,14,14,0,0,1,1.75.13,11.35,11.35,0,0,1,2,.39,4.7,4.7,0,0,1,1.68.81,1.5,1.5,0,0,1,.68,1.27,2.71,2.71,0,0,1-.19.91,2.41,2.41,0,0,1-.55.94,1.22,1.22,0,0,1-.94.39,2.12,2.12,0,0,1-1-.29,5.93,5.93,0,0,0-1.3-.62,5.63,5.63,0,0,0-2.14-.33,5.4,5.4,0,0,0-2,.33,2.6,2.6,0,0,0-1.27.84,2,2,0,0,0-.42,1.33,2,2,0,0,0,.55,1.43,5.62,5.62,0,0,0,1.5,1q.94.45,2,.91a20.29,20.29,0,0,1,2.21,1.07,9.63,9.63,0,0,1,2.07,1.43,5.9,5.9,0,0,1,1.5,2.11,7.47,7.47,0,0,1,.55,3,7.11,7.11,0,0,1-1,3.89,6.35,6.35,0,0,1-2.76,2.37A9.5,9.5,0,0,1,380.93,214.7Zm-.85,0a11.4,11.4,0,0,1-3.83-.61,8.23,8.23,0,0,1-2.7-1.53,2.68,2.68,0,0,1-1-1.88,2.43,2.43,0,0,1,.23-1,2.59,2.59,0,0,1,.68-.9,1.35,1.35,0,0,1,.94-.39,1.46,1.46,0,0,1,1,.39q.46.35,1,.87a6.53,6.53,0,0,0,1.43.88,5.47,5.47,0,0,0,2.08.35,5.25,5.25,0,0,0,1.78-.29,3,3,0,0,0,1.33-.94,2.39,2.39,0,0,0,.52-1.59,2.77,2.77,0,0,0-.55-1.75,4.59,4.59,0,0,0-1.49-1.23q-.94-.52-2-1t-2.24-1a10.62,10.62,0,0,1-2-1.33,6.19,6.19,0,0,1-1.49-1.92,6.35,6.35,0,0,1-.55-2.79,6.27,6.27,0,0,1,.68-3.05,5.8,5.8,0,0,1,1.85-2,7.68,7.68,0,0,1,2.56-1.1,11.16,11.16,0,0,1,2.79-.36,13.79,13.79,0,0,1,1.75.13,11.35,11.35,0,0,1,2,.39,4.7,4.7,0,0,1,1.69.81,1.5,1.5,0,0,1,.68,1.27,2.59,2.59,0,0,1-.2.91,2.41,2.41,0,0,1-.55.94,1.2,1.2,0,0,1-.94.39,2.12,2.12,0,0,1-1-.29,5.65,5.65,0,0,0-1.3-.62,5.58,5.58,0,0,0-2.14-.33,5.45,5.45,0,0,0-2,.33,2.6,2.6,0,0,0-1.26.84,2,2,0,0,0-.43,1.33,2,2,0,0,0,.56,1.43,5.46,5.46,0,0,0,1.49,1q.94.45,2,.91a19.18,19.18,0,0,1,2.21,1.07,9.53,9.53,0,0,1,2.08,1.43,6,6,0,0,1,1.49,2.11,7.47,7.47,0,0,1,.55,3,7.17,7.17,0,0,1-1,3.89,6.43,6.43,0,0,1-2.76,2.37A9.5,9.5,0,0,1,380.08,214.7Zm24.81-.29a3.26,3.26,0,0,1-1.46-.32,1.11,1.11,0,0,1-.65-1v-18.6H398a1.1,1.1,0,0,1-1-.58,2.56,2.56,0,0,1-.35-1.33,2.62,2.62,0,0,1,.32-1.27,1.06,1.06,0,0,1,1-.62h13.73a1,1,0,0,1,1,.62,2.56,2.56,0,0,1,.33,1.27,2.5,2.5,0,0,1-.36,1.33,1.05,1.05,0,0,1-1,.58H407v18.6a1.11,1.11,0,0,1-.68,1A3.19,3.19,0,0,1,404.89,214.41Zm-.86,0a3.26,3.26,0,0,1-1.46-.32,1.11,1.11,0,0,1-.65-1v-18.6h-4.77a1.08,1.08,0,0,1-1-.58,2.5,2.5,0,0,1-.36-1.33,2.62,2.62,0,0,1,.32-1.27,1.08,1.08,0,0,1,1-.62h13.73a1,1,0,0,1,1,.62,2.62,2.62,0,0,1,.32,1.27,2.5,2.5,0,0,1-.36,1.33,1,1,0,0,1-1,.58h-4.74v18.6a1.11,1.11,0,0,1-.68,1A3.19,3.19,0,0,1,404,214.41Zm20.2,0a3.39,3.39,0,0,1-1.46-.32,1.11,1.11,0,0,1-.65-1V192a1,1,0,0,1,.65-1,3.3,3.3,0,0,1,1.46-.33,3.18,3.18,0,0,1,1.46.33,1,1,0,0,1,.65,1v21.1a1.11,1.11,0,0,1-.65,1A3.26,3.26,0,0,1,424.23,214.41Zm-.85,0a3.45,3.45,0,0,1-1.47-.32,1.11,1.11,0,0,1-.64-1V192a1,1,0,0,1,.64-1,3.36,3.36,0,0,1,1.47-.33,3.18,3.18,0,0,1,1.46.33,1,1,0,0,1,.65,1v21.1a1.11,1.11,0,0,1-.65,1A3.26,3.26,0,0,1,423.38,214.41Zm21.07.19a10,10,0,0,1-3.86-.71,6,6,0,0,1-2.73-2.37,8.32,8.32,0,0,1-1-4.35v-9.05a8.16,8.16,0,0,1,1-4.32,5.7,5.7,0,0,1,2.7-2.37,10.39,10.39,0,0,1,7.75,0,5.59,5.59,0,0,1,2.76,2.37,8.09,8.09,0,0,1,1,4.32v9.05a8.25,8.25,0,0,1-1,4.35,5.87,5.87,0,0,1-2.76,2.37A10,10,0,0,1,444.45,214.6Zm0-3.7a3.4,3.4,0,0,0,2.5-.9,3.86,3.86,0,0,0,.91-2.83v-9.05a3.86,3.86,0,0,0-.91-2.83,3.89,3.89,0,0,0-5,0,3.86,3.86,0,0,0-.91,2.83v9.05a3.86,3.86,0,0,0,.91,2.83A3.4,3.4,0,0,0,444.45,210.9Zm-.85,3.7a10.06,10.06,0,0,1-3.87-.71,5.91,5.91,0,0,1-2.72-2.37,8.25,8.25,0,0,1-1-4.35v-9.05a8.09,8.09,0,0,1,1-4.32,5.64,5.64,0,0,1,2.69-2.37,9.67,9.67,0,0,1,3.9-.75,9.56,9.56,0,0,1,3.86.75,5.65,5.65,0,0,1,2.76,2.37,8.16,8.16,0,0,1,1,4.32v9.05a8.32,8.32,0,0,1-1,4.35,5.94,5.94,0,0,1-2.76,2.37A10,10,0,0,1,443.6,214.6Zm0-3.7a3.37,3.37,0,0,0,2.49-.9,3.86,3.86,0,0,0,.91-2.83v-9.05a3.86,3.86,0,0,0-.91-2.83,3.34,3.34,0,0,0-2.49-.91,3.38,3.38,0,0,0-2.5.91,3.86,3.86,0,0,0-.91,2.83v9.05a3.86,3.86,0,0,0,.91,2.83A3.4,3.4,0,0,0,443.6,210.9Zm21,3.51a3.39,3.39,0,0,1-1.46-.32,1.11,1.11,0,0,1-.65-1V192a1.06,1.06,0,0,1,.65-1,3.3,3.3,0,0,1,1.46-.33,4,4,0,0,1,1.27.17,2.09,2.09,0,0,1,.94.65,5.65,5.65,0,0,1,.94,1.42L474,205V192a1,1,0,0,1,.65-1,3.3,3.3,0,0,1,1.46-.33,3.18,3.18,0,0,1,1.46.33,1,1,0,0,1,.65,1v21.1a1.11,1.11,0,0,1-.65,1,3.26,3.26,0,0,1-1.46.32,3.33,3.33,0,0,1-1.39-.29,2.22,2.22,0,0,1-1-1l-7-13.05v13.05a1.11,1.11,0,0,1-.65,1A3.26,3.26,0,0,1,464.64,214.41Zm-.86,0a3.39,3.39,0,0,1-1.46-.32,1.11,1.11,0,0,1-.65-1V192a1.06,1.06,0,0,1,.65-1,3.3,3.3,0,0,1,1.46-.33,4,4,0,0,1,1.27.17,2,2,0,0,1,.94.65,5.65,5.65,0,0,1,.94,1.42L473.2,205V192a1,1,0,0,1,.65-1,3.3,3.3,0,0,1,1.46-.33,3.18,3.18,0,0,1,1.46.33,1,1,0,0,1,.65,1v21.1a1.11,1.11,0,0,1-.65,1,3.26,3.26,0,0,1-1.46.32,3.4,3.4,0,0,1-1.4-.29,2.22,2.22,0,0,1-1-1l-7-13.05v13.05a1.11,1.11,0,0,1-.65,1A3.26,3.26,0,0,1,463.78,214.41Zm44.87.29a11.4,11.4,0,0,1-3.83-.61,8.1,8.1,0,0,1-2.69-1.53,2.67,2.67,0,0,1-1-1.88,2.43,2.43,0,0,1,.23-1,2.59,2.59,0,0,1,.68-.9,1.35,1.35,0,0,1,.94-.39,1.49,1.49,0,0,1,1,.39q.45.35,1,.87a6.3,6.3,0,0,0,1.42.88,5.47,5.47,0,0,0,2.08.35,5.33,5.33,0,0,0,1.79-.29,3,3,0,0,0,1.33-.94,2.39,2.39,0,0,0,.52-1.59,2.74,2.74,0,0,0-.56-1.75,4.59,4.59,0,0,0-1.49-1.23q-.94-.52-2-1t-2.24-1a10.5,10.5,0,0,1-2-1.33,6.19,6.19,0,0,1-1.49-1.92,6.34,6.34,0,0,1-.55-2.79,6.27,6.27,0,0,1,.68-3.05,5.8,5.8,0,0,1,1.85-2,7.68,7.68,0,0,1,2.56-1.1,11.17,11.17,0,0,1,2.79-.36,14,14,0,0,1,1.76.13,11.14,11.14,0,0,1,2,.39,4.7,4.7,0,0,1,1.69.81,1.5,1.5,0,0,1,.68,1.27,2.71,2.71,0,0,1-.19.91,2.52,2.52,0,0,1-.56.94,1.2,1.2,0,0,1-.94.39,2.12,2.12,0,0,1-1-.29,6.12,6.12,0,0,0-3.44-1,5.45,5.45,0,0,0-2,.33,2.6,2.6,0,0,0-1.26.84,2,2,0,0,0-.42,1.33,2,2,0,0,0,.55,1.43,5.46,5.46,0,0,0,1.49,1q.94.45,2,.91a19.58,19.58,0,0,1,2.2,1.07,9.53,9.53,0,0,1,2.08,1.43,6,6,0,0,1,1.49,2.11,7.47,7.47,0,0,1,.55,3,7.17,7.17,0,0,1-1,3.89,6.43,6.43,0,0,1-2.76,2.37A9.5,9.5,0,0,1,508.65,214.7Zm-.86,0a11.4,11.4,0,0,1-3.83-.61,8.24,8.24,0,0,1-2.69-1.53,2.68,2.68,0,0,1-1-1.88,2.49,2.49,0,0,1,.91-1.88,1.35,1.35,0,0,1,.94-.39,1.45,1.45,0,0,1,1,.39q.46.35,1,.87a6.23,6.23,0,0,0,1.43.88,5.39,5.39,0,0,0,2.07.35,5.28,5.28,0,0,0,1.79-.29,3,3,0,0,0,1.33-.94,2.39,2.39,0,0,0,.52-1.59,2.77,2.77,0,0,0-.55-1.75,4.57,4.57,0,0,0-1.5-1.23q-.94-.52-2-1t-2.24-1a10.62,10.62,0,0,1-2-1.33,6.69,6.69,0,0,1-1.37-7.76,5.93,5.93,0,0,1,1.85-2,7.67,7.67,0,0,1,2.57-1.1,11.09,11.09,0,0,1,2.79-.36,14,14,0,0,1,1.75.13,11.35,11.35,0,0,1,2,.39,4.7,4.7,0,0,1,1.68.81,1.5,1.5,0,0,1,.68,1.27,2.71,2.71,0,0,1-.19.91,2.41,2.41,0,0,1-.55.94,1.22,1.22,0,0,1-.94.39,2.12,2.12,0,0,1-1-.29,5.93,5.93,0,0,0-1.3-.62,5.63,5.63,0,0,0-2.14-.33,5.4,5.4,0,0,0-2,.33,2.6,2.6,0,0,0-1.27.84,2,2,0,0,0-.42,1.33,2,2,0,0,0,.55,1.43,5.62,5.62,0,0,0,1.5,1q.94.45,2,.91a20.29,20.29,0,0,1,2.21,1.07,9.63,9.63,0,0,1,2.07,1.43,5.9,5.9,0,0,1,1.5,2.11,7.47,7.47,0,0,1,.55,3,7.11,7.11,0,0,1-1,3.89,6.35,6.35,0,0,1-2.76,2.37A9.5,9.5,0,0,1,507.79,214.7Zm25.53-.1a9.71,9.71,0,0,1-3.74-.71,5.91,5.91,0,0,1-2.72-2.37,8.25,8.25,0,0,1-1-4.35v-9.05a8.09,8.09,0,0,1,1-4.32,5.62,5.62,0,0,1,2.72-2.37,9.33,9.33,0,0,1,3.77-.75,9.58,9.58,0,0,1,4,.78,6.35,6.35,0,0,1,2.73,2.11,5.41,5.41,0,0,1,1,3.28,2.12,2.12,0,0,1-.52,1.69,2.62,2.62,0,0,1-1.59.39,3.49,3.49,0,0,1-1.49-.29,1.2,1.2,0,0,1-.62-1,3.82,3.82,0,0,0-.13-.91,2.85,2.85,0,0,0-.42-1.07,2.51,2.51,0,0,0-1-.88,3.79,3.79,0,0,0-1.82-.36,3.36,3.36,0,0,0-2.56,1,3.86,3.86,0,0,0-.88,2.79v9.05a3.86,3.86,0,0,0,.91,2.83,3.53,3.53,0,0,0,2.59.9,3.73,3.73,0,0,0,1.76-.35,2.32,2.32,0,0,0,.94-.88,3.38,3.38,0,0,0,.42-1.13,11.06,11.06,0,0,0,.19-1.11,1.21,1.21,0,0,1,.65-1,3.22,3.22,0,0,1,1.43-.29,2.54,2.54,0,0,1,1.62.42,2.09,2.09,0,0,1,.52,1.66,5.89,5.89,0,0,1-1,3.41,6.27,6.27,0,0,1-2.73,2.24A9.9,9.9,0,0,1,533.32,214.6Zm-.86,0a9.68,9.68,0,0,1-3.73-.71,6,6,0,0,1-2.73-2.37,8.32,8.32,0,0,1-1-4.35v-9.05a8.16,8.16,0,0,1,1-4.32,5.67,5.67,0,0,1,2.73-2.37,9.3,9.3,0,0,1,3.76-.75,9.6,9.6,0,0,1,4,.78,6.28,6.28,0,0,1,2.72,2.11,5.37,5.37,0,0,1,1,3.28,2.12,2.12,0,0,1-.52,1.69,2.65,2.65,0,0,1-1.59.39,3.45,3.45,0,0,1-1.49-.29,1.17,1.17,0,0,1-.62-1,3.82,3.82,0,0,0-.13-.91,3.09,3.09,0,0,0-.42-1.07,2.59,2.59,0,0,0-1-.88,3.8,3.8,0,0,0-1.82-.36,3.38,3.38,0,0,0-2.56,1,3.86,3.86,0,0,0-.88,2.79v9.05a3.86,3.86,0,0,0,.91,2.83,3.54,3.54,0,0,0,2.6.9,3.71,3.71,0,0,0,1.75-.35,2.32,2.32,0,0,0,.94-.88,3.11,3.11,0,0,0,.42-1.13q.13-.59.2-1.11a1.19,1.19,0,0,1,.65-1,3.18,3.18,0,0,1,1.43-.29,2.56,2.56,0,0,1,1.62.42,2.09,2.09,0,0,1,.52,1.66,5.84,5.84,0,0,1-1,3.41,6.21,6.21,0,0,1-2.72,2.24A10,10,0,0,1,532.46,214.6Zm25.69,0a10.06,10.06,0,0,1-3.87-.71,5.91,5.91,0,0,1-2.72-2.37,8.25,8.25,0,0,1-1-4.35v-9.05a8.09,8.09,0,0,1,1-4.32,5.64,5.64,0,0,1,2.69-2.37,9.67,9.67,0,0,1,3.9-.75,9.56,9.56,0,0,1,3.86.75,5.65,5.65,0,0,1,2.76,2.37,8.16,8.16,0,0,1,1,4.32v9.05a8.32,8.32,0,0,1-1,4.35,5.94,5.94,0,0,1-2.76,2.37A10,10,0,0,1,558.15,214.6Zm0-3.7a3.4,3.4,0,0,0,2.5-.9,3.89,3.89,0,0,0,.9-2.83v-9.05a3.89,3.89,0,0,0-.9-2.83,3.89,3.89,0,0,0-5,0,3.86,3.86,0,0,0-.91,2.83v9.05a3.86,3.86,0,0,0,.91,2.83A3.4,3.4,0,0,0,558.15,210.9Zm-.86,3.7a10,10,0,0,1-3.86-.71,6,6,0,0,1-2.73-2.37,8.32,8.32,0,0,1-1-4.35v-9.05a8.16,8.16,0,0,1,1-4.32,5.7,5.7,0,0,1,2.7-2.37,10.39,10.39,0,0,1,7.75,0,5.59,5.59,0,0,1,2.76,2.37,8.09,8.09,0,0,1,1,4.32v9.05a8.25,8.25,0,0,1-1,4.35,5.87,5.87,0,0,1-2.76,2.37A10,10,0,0,1,557.29,214.6Zm0-3.7a3.4,3.4,0,0,0,2.5-.9,3.86,3.86,0,0,0,.91-2.83v-9.05a3.86,3.86,0,0,0-.91-2.83,3.89,3.89,0,0,0-5,0,3.86,3.86,0,0,0-.91,2.83v9.05a3.86,3.86,0,0,0,.91,2.83A3.4,3.4,0,0,0,557.29,210.9Zm31.11,3.51H578.07a2.57,2.57,0,0,1-1.26-.32,1.12,1.12,0,0,1-.59-1V192a1,1,0,0,1,.65-1,3.34,3.34,0,0,1,1.46-.33,3.14,3.14,0,0,1,1.46.33,1,1,0,0,1,.65,1v18.73h8a1,1,0,0,1,.9.58,2.45,2.45,0,0,1,.33,1.27,2.56,2.56,0,0,1-.33,1.27A1,1,0,0,1,588.4,214.41Zm-.86,0H577.22a2.62,2.62,0,0,1-1.27-.32,1.13,1.13,0,0,1-.58-1V192a1,1,0,0,1,.65-1,3.3,3.3,0,0,1,1.46-.33,3.18,3.18,0,0,1,1.46.33,1,1,0,0,1,.65,1v18.73h8a1,1,0,0,1,.91.58,2.51,2.51,0,0,1,.32,1.27,2.62,2.62,0,0,1-.32,1.27A1,1,0,0,1,587.54,214.41Zm12.18,0a3.44,3.44,0,0,1-1.2-.23,3.09,3.09,0,0,1-1-.61,1.21,1.21,0,0,1-.42-.91,2.91,2.91,0,0,1,0-.33l6.27-20.41a1.74,1.74,0,0,1,1-1.07,4.23,4.23,0,0,1,1.72-.36,4,4,0,0,1,1.72.36,1.73,1.73,0,0,1,1,1.07l6.26,20.41a1.31,1.31,0,0,1,.07.33,1.26,1.26,0,0,1-.45.91,3.08,3.08,0,0,1-1,.61,3.44,3.44,0,0,1-1.2.23,2.39,2.39,0,0,1-.91-.16,1,1,0,0,1-.49-.68l-1.23-4.32h-7.47l-1.2,4.32a1,1,0,0,1-.52.68A2.39,2.39,0,0,1,599.72,214.41ZM606.08,196l-2.82,10h5.65Zm-7.21,18.44a3.39,3.39,0,0,1-1.2-.23,3,3,0,0,1-1-.61,1.21,1.21,0,0,1-.42-.91,2.91,2.91,0,0,1,0-.33l6.26-20.41a1.73,1.73,0,0,1,1-1.07,4.19,4.19,0,0,1,1.72-.36,4.05,4.05,0,0,1,1.72.36,1.7,1.7,0,0,1,1,1.07l6.27,20.41a1.51,1.51,0,0,1,.06.33,1.26,1.26,0,0,1-.45.91,3,3,0,0,1-1,.61,3.44,3.44,0,0,1-1.2.23,2.39,2.39,0,0,1-.91-.16,1,1,0,0,1-.49-.68L609,209.25H601.5l-1.2,4.32a1,1,0,0,1-.52.68A2.39,2.39,0,0,1,598.87,214.41ZM605.23,196l-2.83,10H608Zm21,18.44a3.39,3.39,0,0,1-1.46-.32,1.11,1.11,0,0,1-.65-1V192a1,1,0,0,1,.65-1,3.3,3.3,0,0,1,1.46-.33,3.18,3.18,0,0,1,1.46.33,1,1,0,0,1,.65,1v21.1a1.11,1.11,0,0,1-.65,1A3.26,3.26,0,0,1,626.27,214.41Zm-.85,0a3.39,3.39,0,0,1-1.46-.32,1.11,1.11,0,0,1-.65-1V192a1,1,0,0,1,.65-1,3.3,3.3,0,0,1,1.46-.33,3.18,3.18,0,0,1,1.46.33,1,1,0,0,1,.65,1v21.1a1.11,1.11,0,0,1-.65,1A3.26,3.26,0,0,1,625.42,214.41Zm26.72.16a1.58,1.58,0,0,1-.84-.26,1.8,1.8,0,0,1-.62-.74l-4.61-9h-2.73v8.47a1.11,1.11,0,0,1-.64,1,3.28,3.28,0,0,1-1.47.32,3.43,3.43,0,0,1-1.46-.32,1.11,1.11,0,0,1-.65-1V192a1.3,1.3,0,0,1,.36-.91,1.37,1.37,0,0,1,1-.39h6.42a11.36,11.36,0,0,1,3.87.62,5.59,5.59,0,0,1,2.79,2.11,6.9,6.9,0,0,1,1,4.06,8.26,8.26,0,0,1-.56,3.21,5.46,5.46,0,0,1-1.52,2.11,6.36,6.36,0,0,1-2.18,1.17l4.29,7.89a1.64,1.64,0,0,1,.1.29,1,1,0,0,1,0,.23,1.72,1.72,0,0,1-.39,1,3,3,0,0,1-1,.85A2.51,2.51,0,0,1,652.14,214.57Zm-8.8-20.19v6.92h3.57a3.88,3.88,0,0,0,2.54-.78,4.29,4.29,0,0,0,0-5.36,3.88,3.88,0,0,0-2.54-.78Zm7.94,20.19a1.58,1.58,0,0,1-.84-.26,1.8,1.8,0,0,1-.62-.74l-4.61-9h-2.72v8.47a1.11,1.11,0,0,1-.65,1,3.26,3.26,0,0,1-1.46.32,3.39,3.39,0,0,1-1.46-.32,1.11,1.11,0,0,1-.65-1V192a1.3,1.3,0,0,1,.36-.91,1.35,1.35,0,0,1,1-.39h6.43a11.33,11.33,0,0,1,3.86.62,5.59,5.59,0,0,1,2.79,2.11,6.9,6.9,0,0,1,1,4.06,8.39,8.39,0,0,1-.55,3.21,5.42,5.42,0,0,1-1.53,2.11A6.38,6.38,0,0,1,649.5,204l4.28,7.89a1,1,0,0,1,.1.29,1,1,0,0,1,0,.23,1.72,1.72,0,0,1-.39,1,3,3,0,0,1-1,.85A2.56,2.56,0,0,1,651.28,214.57Zm-8.79-20.19v6.92h3.57a3.84,3.84,0,0,0,2.53-.78,4.29,4.29,0,0,0,0-5.36,3.84,3.84,0,0,0-2.53-.78Zm35.29,20H666.23a2.59,2.59,0,0,1-1.27-.32,1.13,1.13,0,0,1-.58-1V192a1.06,1.06,0,0,1,.58-1,2.36,2.36,0,0,1,1.27-.36h11.55a1,1,0,0,1,1,.59,2.51,2.51,0,0,1,.32,1.23,2.38,2.38,0,0,1-.36,1.33,1,1,0,0,1-1,.55H668.6v6.5h4.93a1.07,1.07,0,0,1,1,.51,1.92,1.92,0,0,1,.36,1.17,2.14,2.14,0,0,1-.33,1.11,1,1,0,0,1-1,.52H668.6v6.52h9.18a1,1,0,0,1,1,.55,2.38,2.38,0,0,1,.36,1.33,2.56,2.56,0,0,1-.32,1.24A1,1,0,0,1,677.78,214.41Zm-.86,0H665.37a2.62,2.62,0,0,1-1.27-.32,1.13,1.13,0,0,1-.58-1V192a1.06,1.06,0,0,1,.58-1,2.4,2.4,0,0,1,1.27-.36h11.55a1,1,0,0,1,1,.59,2.45,2.45,0,0,1,.33,1.23,2.38,2.38,0,0,1-.36,1.33,1.07,1.07,0,0,1-1,.55h-9.18v6.5h4.93a1.09,1.09,0,0,1,1,.51,2,2,0,0,1,.35,1.17,2.19,2.19,0,0,1-.32,1.11,1.06,1.06,0,0,1-1,.52h-4.93v6.52h9.18a1.07,1.07,0,0,1,1,.55,2.38,2.38,0,0,1,.36,1.33,2.5,2.5,0,0,1-.33,1.24A1,1,0,0,1,676.92,214.41Z"/></g></g></g></g></svg>